<?xml version="1.0" encoding="utf-8"?>
<!-- Generator: Adobe Illustrator 18.1.1, SVG Export Plug-In . SVG Version: 6.00 Build 0)  -->
<svg version="1.1" id="Layer_1" xmlns="http://www.w3.org/2000/svg" xmlns:xlink="http://www.w3.org/1999/xlink" x="0px" y="0px"
	 viewBox="0 0 900 900" enable-background="new 0 0 900 900" xml:space="preserve">
<path fill="#FFFFFF" d="M101.2,607.1l-22.8-11l8.3-36.1l-9.4-14.4l-17.7,55.1l41.4,20.2L101.2,607.1z M746.6,624L732,635.3
	l-5.4,89.6l-89.6,5.4L597.8,811l-84.9-29.2l-67.3,59.6l-67.3-59.6l-85,29.2l-39.2-80.7l-89.6-5.4l-5.3-89.6l-18.8-9.1l2.6,10.3
	l0.8,5.3l5.8,93.8l93.8,5.8l41.1,84.2l88.8-30.4l70.4,62.3l70.3-62.3l88.8,30.4l41.2-84.2l93.8-5.8l5.3-93.8l14.2-11.1L746.6,624z
	 M840.7,461.3l18.9-19.8L797,371.2l30.7-88.8l-84.6-41.2l-5.3-93.8l-93.8-5.3l-41.2-84.6L514,88.2l-70.3-62.6l-70.4,62.6l-88.8-30.7
	l-41.1,84.6l-93.8,5.3l-5.8,93.8l-84.2,41.2L90,371.2l-62.3,70.3L86.5,508l11.8-7.3L48,443.9l59.5-67.2l-29.2-85l80.8-39.2l5.3-89.6
	l89.6-5.4l39.2-80.7l85,29.2l67.3-59.6l67.3,59.6l84.9-29.2l39.2,80.7l89.6,5.4l5.4,89.6l80.7,39.2l-29.2,85l59.6,67.2L832,454"/>
<path fill="none" d="M434.5,399.4c0.1,0,0.1,0,0.2,0c0.9-0.2,1.5-0.3,1.9-0.5c3.3-6.1,9.4-35.6,2.2-84c-2.9-20.2-7.2-25.3-8.2-26.2
	c-0.1,0-0.2,0-0.3,0c-1.1,0.2-1.8,0.4-2.3,0.6c-3.3,8-8.6,37.7-1.8,84.4C429.1,393.5,433.6,398.6,434.5,399.4z"/>
<path fill="none" d="M537.8,355.7c5.8-11.4,12.2-23.1,18.3-33c-8.8-11.4-17.4-23.3-25.2-35.2c1.8,6.5,3.3,13.5,4.4,21.1
	C537.7,324.7,538.5,340.5,537.8,355.7z"/>
<path fill="#FFFFFF" d="M326.2,338.5C317.9,391,308,448.3,299.1,473c-0.1,0.3-0.2,0.7-0.4,1c-0.5,1.6-1,3.1-1.5,4.5
	c-0.8,2.7-3.1,4.6-7.3,4.6c-8.1,1.9-23.1,2.7-35.8,2.7l-1.9,0.4c-10.4,1.5-36.9-5.4-46.1-10.8c-4.6-2.7-8.1-6.5-9.2-11.1
	c-2.3-9.6-20.4-55.4-41.9-126.1c-11.5-36.1-16.5-56.5-17.7-60.7c-0.6-2,0.1-5.2,1.8-8.3c0.6-4.8,4.7-11.7,11.2-12.7
	c20.8-3.1,49.6,3.1,58.4,11.9c5.7,6.1,25.8,81.8,38.9,140.6c6.8-52,9.2-112.6,16.1-156.6c0.5-3.1,0.7-5.5,2.1-7
	c0.6-3.8,1.1-6.3,5.2-7.1c20.8-3.1,51.5,4.2,62.3,13.8c3.1,2.4,5.8,4.3,4.6,9.3c-1,6.2-2,13.2-3.1,20.7c1.5-4.9,3.2-9.6,5.2-14.2
	c3-7.1,6.5-13.7,10.3-19.6c-2.4-3.9-5.6-6.4-7.4-7.8c-10.5-9-34.7-17.9-61.3-17.9c-4.5,0-8.8,0.3-12.8,0.9c-0.1,0-0.2,0-0.4,0.1
	c-14.7,2.6-16.7,15.3-17.4,19.5c-0.1,0.4-0.1,0.8-0.2,1.2c0,0.1,0,0.2,0,0.2c-3.7,23.4-6,50.6-8.5,79.5c-0.7-2.6-1.4-5.1-2-7.6
	c-13.9-51.2-17.8-55.3-20.6-58.3c-0.1-0.1-0.2-0.2-0.3-0.4c-11.8-11.8-37.9-17.1-57.3-17.1c-4.9,0-9.6,0.3-13.9,1
	c-7.7,1.2-14.5,5.7-19.1,12.9c-4.5,6.9-6,15-4.2,21.5c0.2,0.7,0.5,1.8,0.9,3.4c2.2,8.2,7.3,27.5,16.9,57.6
	c13.9,45.5,26.5,81.4,34,102.8c3.7,10.6,6.9,19.7,7.6,22.4c2,8.3,7.7,15.6,16.2,20.5c11,6.5,36.4,13.1,50.3,13.1
	c2,0,3.8-0.1,5.5-0.4c0.3,0,0.6-0.1,1-0.2l0.4-0.1c7.2,0,24.7-0.4,36.1-2.8c9.5-0.7,16.8-6.2,19.6-14.8
	c6.1-17.1,12.6-48.1,18.7-82.5c-1.2-5.1-2.3-10.5-3.1-16.2C326.8,365.3,326,351.7,326.2,338.5z"/>
<path fill="#FFFFFF" d="M333.3,252.3c-10.8-9.6-41.5-16.9-62.3-13.8c-4.1,0.7-4.5,3.3-5.2,7.1c0.7-0.7,1.7-1.3,3.3-1.5
	c20.8-3.1,51.5,4.2,62.3,13.8c2.7,2.4,5.4,4.3,4.6,9.3c-1.1,6.9-2.2,14.7-3.5,23.2c0.7-2.7,1.5-5.3,2.3-7.9
	c1.1-7.6,2.2-14.5,3.1-20.7C339.1,256.6,336.4,254.7,333.3,252.3z"/>
<path fill="#FFFFFF" d="M148.4,262.1c20.8-3.1,49.6,3.1,58.4,11.9c5.8,6.2,26.5,84.6,39.6,143.8c0.4-2.9,0.8-5.8,1.2-8.7
	c-13.1-58.8-33.2-134.5-38.9-140.6c-8.8-8.8-37.6-15-58.4-11.9c-6.6,1-10.6,7.9-11.2,12.7C141,265.9,144.2,262.7,148.4,262.1z"/>
<path fill="#333333" d="M298.7,474c0.2-0.3,0.3-0.6,0.4-1c8.9-24.7,18.8-82,27.1-134.5c0.1-2.9,0.2-5.9,0.3-8.7
	C318.3,382.9,308,444.8,298.7,474z"/>
<path fill="#FFFFFF" d="M435.2,412.2c6.9-1.2,9.6-3.8,11.1-5.8c5.8-6.9,13.5-40.8,5.4-95.7c-2.6-17.9-6.6-28.1-11.4-33.5
	c-4-3.4-8.3-4-12.4-3.3c-6.9,1.2-10,3.5-11.5,5.4c-5.4,7.3-13.1,41.1-5,96.5c2.6,17.6,6.7,27.6,11.4,33
	C426.8,412.2,431,412.9,435.2,412.2z M428,289.3c0.5-0.2,1.3-0.4,2.3-0.6c0.1,0,0.2,0,0.3,0c1,0.9,5.3,6,8.2,26.2
	c7.1,48.4,1,78-2.2,84c-0.3,0.1-0.9,0.3-1.9,0.5c-0.1,0-0.2,0-0.2,0c-0.9-0.9-5.4-6-8.3-25.8C419.4,326.9,424.7,297.3,428,289.3z"/>
<path fill="#FFFFFF" d="M516.3,400.5c0.6-1.2,1.4-3,2.5-5.3c4.2-8.9,11.1-23.9,19.1-39.5c0.7-15.2-0.2-31-2.5-47.1
	c-1.1-7.6-2.6-14.7-4.4-21.1c-6.3-9.6-12.2-19.2-17.4-28.6c-3.8-6.6-5.7-12.7-5.8-18.4c-11.8-14.5-23.7-21.4-29.3-24
	c-0.1,0-0.2-0.1-0.3-0.1c-15.9-7.1-37.1-8.1-48.3-8.1c-8.2,0-16.2,0.5-24,1.6c-0.1,0-0.1,0-0.2,0c-22.2,3.2-41.5,16.7-55.5,38.6
	c2.4,3.9,3.9,9.1,2.4,15.9c-0.4,2.8-0.9,5.9-1.4,9c11.5-28.1,30.7-47.2,54.7-50.7c22.7-3.1,49.6-1.1,64.2,5.4
	c5.6,2.7,13,7.6,20.4,15.6c12.3,12.5,25,33.5,29.9,67.1C532,389.6,504,456.1,456.7,463c-22.7,3.5-49.6,1.9-64.2-5
	c-5.7-2.7-13.1-7.6-20.6-15.8c-12.4-12.6-25.1-33.6-30.1-67.3c-1.2-8.3-2-16.4-2.3-24.4c-2.4,15-4.9,30.2-7.5,44.7
	c12.7,52.8,44.1,71.5,54.1,76.3c15.2,7.2,35.7,8.2,46.6,8.2c8.8,0,17.9-0.7,26.2-2c24.1-3.5,44.6-19.1,58.8-44.3
	C512.3,424,511.4,410,516.3,400.5z"/>
<path fill="#FFFFFF" d="M351.3,273.4c0.5-3.1,0.9-6.2,1.4-9c1.5-6.8-0.1-12-2.4-15.9c-3.8,5.9-7.3,12.5-10.3,19.6
	c-1.9,4.6-3.6,9.3-5.2,14.2c-2.5,16.6-5.4,36-8.6,56.2c-0.2,13.2,0.6,26.8,2.7,40.6c0.8,5.7,1.9,11.1,3.1,16.2
	c2.6-14.6,5.1-29.7,7.5-44.7C338.2,321.4,342.5,294.8,351.3,273.4z"/>
<path fill="#333333" d="M326.5,329.7c-0.2,2.9-0.3,5.8-0.3,8.7c3.2-20.1,6.1-39.5,8.6-56.2c-0.8,2.6-1.6,5.2-2.3,7.9
	C330.7,302.3,328.7,315.7,326.5,329.7z"/>
<path fill="#FFFFFF" d="M454.8,461c-22.7,3.5-49.6,1.9-64.2-5c-5.2-2.5-11.9-6.8-18.7-13.8c7.5,8.1,14.9,13.1,20.6,15.8
	c14.6,6.9,41.5,8.5,64.2,5c47.3-6.9,75.3-73.4,63.8-152.2c-4.9-33.6-17.6-54.6-29.9-67.1c11.7,12.7,23.4,33.3,28,65.1
	C530.1,387.6,502.1,454.1,454.8,461z"/>
<path fill="#333333" d="M416.4,279.3c1.5-1.9,4.6-4.2,11.5-5.4c4.2-0.7,8.5-0.1,12.4,3.3c-4.5-5.2-9.6-6.1-14.4-5.3
	c-6.8,1.2-10.3,3.5-11.5,5.4c-5.4,7.3-13.1,41.1-5,96.5c2.9,20,7.8,30.3,13.4,35c-4.7-5.4-8.8-15.5-11.4-33
	C403.3,320.4,411,286.6,416.4,279.3z"/>
<path fill="#FFFFFF" d="M715.4,382.6c-13-22.7-26.1-45-43.9-67.6c14.1-20.9,35.3-53.2,40.6-64c6.1-11.8,2.8-29.1-4.2-37.5
	c-0.1-0.1-0.2-0.2-0.2-0.3c-11.5-13.2-31.8-29.1-49.2-32.9c-0.4-0.1-0.8-0.2-1.1-0.2c-1-0.1-2-0.2-3-0.2c-10.5,0-22,8.3-26.1,16
	c-4.7,8.3-10.6,21.5-15.9,34.6c-1.8-3.9-3.6-7.4-5.3-10.6c-8.9-16.6-17.3-27.7-29.6-27.7c-0.9,0-1.7,0.1-2.5,0.2
	c-15.3,2.1-51.4,16.6-62.6,33.2c-3.2,4.5-4.7,9.5-4.6,14.8c8.8,10.9,17.5,26.1,23.2,47c7.8,11.9,16.4,23.9,25.2,35.2
	c-6.2,9.9-12.5,21.6-18.3,33c-0.6,13.9-2.4,27.2-5.4,39.7c8.7-18.6,26.2-55.4,40.4-75.5c-18.8-23.1-35.8-48.4-48.1-70.4
	c-3.1-5.4-5.8-11.9-1.9-17.3c7.3-11.1,38.4-25,52.3-26.9c2-0.3,4.5,1.4,7.1,4.5c8.3,7.7,19.5,32.1,29.5,56.8
	c9.5-25.4,20.7-53,27.9-65.5c1.5-3.1,8.8-8.8,13.8-8.1c11.7,2.6,28.3,14.2,39.4,26.3c1.2,1.3,2.4,2.6,3.6,3.8
	c3.5,4.2,5.4,15.4,2.3,21.1c-4.8,10.1-30.5,49.3-45.9,71.6c21.1,25,35.8,50,49.6,74.2c3.1,5.4,5.8,11.9,1.9,17.3
	c-7.3,11.1-31.1,31.1-45,33.4c-2.2,0.4-5.1-1.6-8.4-5.3c-10.3-9.9-25.4-40.2-37.1-67.5c-8.8,26.6-20.5,58.5-28.3,77.4
	c-1.9,4.6-5.8,5.8-10.8,5c-12.3-2.7-31.5-11.1-42.7-22.3c-0.2-0.3-0.4-0.5-0.7-0.8c-0.4-0.4-0.8-0.8-1.2-1.2
	c-2.1-2.3-3.5-6.5-3.8-10.8c-0.6,1.5-1.2,3-1.8,4.5c-2.1,4.9-4.3,9.6-6.8,13.9c0.9,1.6,2,3.2,3.2,4.5c0.2,0.2,0.3,0.4,0.5,0.5
	c13.5,13.5,35.4,23.1,50.1,26.3c0.3,0.1,0.6,0.1,0.8,0.2c1.7,0.3,3.4,0.4,5.1,0.4c10,0,18.2-5.4,22-14.5c4.9-11.7,11-27.6,16.9-44.2
	c3.1,6.2,6.1,11.9,8.9,16.9c13,23,22.4,32,33.6,32c1,0,1.9-0.1,2.8-0.2h0.1c19.9-3.3,46.7-27.4,54.9-39.7
	C723.2,406.5,722.8,395.3,715.4,382.6z"/>
<path fill="#FFFFFF" d="M513.5,258.9c5.2,9.4,11.1,19,17.4,28.6c-5.7-20.9-14.4-36.1-23.2-47C507.9,246.2,509.8,252.3,513.5,258.9z"
	/>
<path fill="#FFFFFF" d="M526.3,415.2c-0.3-3.6,0.1-7.3,1.5-10c0.9-1.9,2.5-5.3,4.6-9.8c3-12.5,4.8-25.8,5.4-39.7
	c-8,15.6-14.9,30.6-19.1,39.5c-1.1,2.3-1.9,4.1-2.5,5.3c-4.8,9.5-4,23.5,1.4,33.1c2.5-4.4,4.7-9,6.8-13.9
	C525.1,418.2,525.7,416.7,526.3,415.2z"/>
<path fill="#333333" d="M583.6,443.3c-1.9,4.6-5.8,5.8-10.8,5c-11.9-2.6-30.1-10.5-41.5-21.1c0.2,0.3,0.4,0.6,0.7,0.8
	c11.2,11.2,30.4,19.6,42.7,22.3c5,0.8,8.9-0.4,10.8-5c7.9-18.9,19.6-50.8,28.3-77.4c-0.5-1.1-1-2.3-1.4-3.4
	C603.6,391.4,591.6,424.1,583.6,443.3z"/>
<path fill="#333333" d="M696.8,242.2c-5.2,10.1-30.9,49.3-45.9,71.6c21.1,25,35.8,50,49.6,74.2c3.1,5.4,5.8,11.9,1.9,17.3
	c-7.3,11.1-31.1,31.1-45,33.4c-1.8,0.3-4-0.9-6.5-3.3c3.2,3.7,6.1,5.7,8.4,5.3c13.9-2.3,37.7-22.3,45-33.4
	c3.9-5.4,1.2-11.9-1.9-17.3c-13.8-24.2-28.5-49.2-49.6-74.2c15.4-22.3,41.1-61.5,45.9-71.6c3.1-5.7,1.2-16.9-2.3-21.1
	c-1.1-1.3-2.3-2.6-3.6-3.8c0.6,0.6,1.1,1.2,1.7,1.8C698,225.3,699.9,236.5,696.8,242.2z"/>
<path fill="#FFFFFF" d="M611.7,266.6c-10-24.7-21.2-49.1-29.5-56.8c8.4,9.8,19.4,34.2,29,58.2C611.4,267.5,611.6,267.1,611.7,266.6z
	"/>
<path fill="#FFFFFF" d="M265.6,247c0.1-0.5,0.2-1,0.2-1.4c-1.4,1.5-1.6,3.9-2.1,7c-6.9,44-9.3,104.6-16.1,156.6
	c0.2,1.1,0.5,2.1,0.7,3.2C256,358.5,258.3,293.5,265.6,247z"/>
<path fill="#FFFFFF" d="M332.5,290.3c-3.2,12.4-5.2,25.7-6,39.5C328.7,315.7,330.7,302.3,332.5,290.3z"/>
<path fill="#FFFFFF" d="M613.8,367.9c11.7,27.3,26.8,57.6,37.1,67.5c-10.6-12.1-25.5-42.4-36.6-68.9
	C614.1,367,614,367.4,613.8,367.9z"/>
<path fill="#FFFFFF" d="M530.1,426c0.4,0.4,0.8,0.8,1.2,1.2c-3.3-4.7-4.6-14.5-1.6-20c4.6-9.6,27.3-60.4,45-85.3
	c-18.8-23.1-35.8-48.4-48.1-70.4c-3.1-5.4-5.8-11.9-1.9-17.3c7.3-11.1,38.4-25,52.3-26.9c1.5-0.2,3.3,0.7,5.2,2.5
	c-2.7-3.1-5.1-4.8-7.1-4.5c-13.9,1.9-45,15.8-52.3,26.9c-3.9,5.4-1.2,11.9,1.9,17.3c12.3,22,29.3,47.3,48.1,70.4
	c-14.2,20-31.7,56.8-40.4,75.5c-1.7,6.9-3.7,13.5-6.1,19.8C526.6,419.5,528,423.7,530.1,426z"/>
<path fill="#FFFFFF" d="M641.5,203.1c1.5-3.1,8.8-8.8,13.8-8.1c11.1,2.4,26.5,12.9,37.5,24.3c-11.1-12.1-27.7-23.7-39.4-26.3
	c-5-0.7-12.3,5-13.8,8.1c-7.2,12.5-18.4,40.1-27.9,65.5c0.5,1.1,0.9,2.3,1.4,3.4C622.7,244.2,634.2,215.8,641.5,203.1z"/>
<path fill="#FFFFFF" d="M526.3,415.2c2.4-6.3,4.5-12.9,6.1-19.8c-2.1,4.5-3.7,8-4.6,9.8C526.4,407.9,526,411.6,526.3,415.2z"/>
<path fill="#FFFFFF" d="M248.8,486.4c-12.8,0-36-6.5-44.5-11.5c-5.8-3.4-9.6-8-10.8-13.3c-0.8-3.3-3.8-11.8-7.9-23.5
	c-7.5-21.3-20.1-57-33.9-102.4c-9.5-29.8-14.6-49-16.7-57.1c-0.4-1.7-0.8-2.9-1-3.6c-0.9-3.3,0.2-8,2.8-12.1
	c2.8-4.3,6.8-7.1,11.2-7.7c3.8-0.6,7.9-0.8,12.2-0.8c20.2,0,41.3,5.9,49.2,13.7l0.1,0.1c6.6,7.1,24.9,78.2,36.1,126.2
	c2.4-20.9,4.3-42.8,6.1-64.3c2.5-29.8,4.9-57.9,8.7-81.6c0.1-0.5,0.2-0.9,0.2-1.4c0.6-4,1.4-8.9,8-10c3.5-0.5,7.2-0.8,11.1-0.8
	c20.6,0,44.4,6.8,54.1,15.4l0.6,0.5c2.6,2.3,6.2,5.4,5.1,12c-1.1,7.1-2.3,15.2-3.6,24c-9.2,61.4-23.2,154.1-35.3,188
	c-1.3,4.3-5,6.9-10.2,7c-8.8,2-24.1,2.7-35.9,2.7l-1.8,0.4C251.6,486.3,250.3,486.4,248.8,486.4z M160.1,261.3
	c-4,0-7.8,0.3-11.2,0.8c-3.2,0.5-5.4,3.1-6.3,4.6c-1.8,2.8-2.2,5.6-1.9,6.4c0.2,0.7,0.5,2,1,3.8c2.2,8.1,7.2,27.1,16.7,56.8
	c13.8,45.2,26.3,80.8,33.8,102.1c4.4,12.4,7.3,20.6,8.1,24.2c0.8,3.3,3.5,6.5,7.6,8.9c7.5,4.4,29.5,10.5,41,10.5
	c1.1,0,2-0.1,2.7-0.2l2.1-0.5h0.4c11.5,0,26.8-0.7,35-2.6l0.4-0.1h0.4c3.3,0,3.8-1.5,3.9-2.1l0.1-0.2c11.9-33.2,25.8-125.6,35-186.7
	c1.3-8.8,2.5-16.9,3.6-24c0.4-2.6-0.4-3.4-2.8-5.6l-0.6-0.6c-8.3-7.4-31-13.6-49.4-13.6c-3.6,0-7,0.2-10,0.7
	c-1.5,0.3-1.6,0.3-2.2,4.3c-0.1,0.4-0.1,0.9-0.2,1.4c-3.7,23.5-6.1,51.5-8.6,81.1c-2.4,28.3-4.9,57.6-8.7,84.1l-2.7,19l-4.2-18.8
	c-14.3-64.7-33.8-136.3-38.7-142.1C197.7,266.5,178,261.3,160.1,261.3z"/>
<path fill="#FFFFFF" d="M430.8,466.3c-16.9,0-32.1-2.6-41.7-7.1c-9.7-4.6-42-24.2-50.8-83.8c-5.6-38.5-2-75.7,10.3-104.8
	c12.5-29.6,32.7-47.9,56.9-51.4c7.1-1,14.6-1.5,22.3-1.5c17.7,0,33.6,2.6,43.8,7.1c9.7,4.6,41.7,24,50.4,83.4
	c5.6,38.7,2.1,76-10.1,104.9c-12.4,29.5-32.5,47.7-56.7,51.2C447.5,465.7,439.1,466.3,430.8,466.3z M427.8,224.8
	c-7.4,0-14.5,0.5-21.3,1.4c-21.6,3.2-39.9,19.9-51.4,47.2c-11.8,27.9-15.3,63.8-9.8,101c8.3,56.2,37.9,74.2,46.8,78.4
	c8.7,4.1,22.8,6.5,38.7,6.5c7.9,0,16.1-0.6,23.5-1.8c21.7-3.2,39.9-19.9,51.3-47c11.7-27.8,15.1-63.7,9.6-101.2
	c-8.2-55.9-37.6-73.9-46.4-78C459.6,227.2,444.3,224.8,427.8,224.8z M432.3,415.9L432.3,415.9c-13.7,0-22.3-13.6-26.4-41.6
	c-4.5-31-3.9-53.6-2.6-67.1c1.5-14.9,4.5-26.8,8.2-31.9c2.1-3.2,7-5.7,13.8-6.9c1.3-0.2,2.5-0.3,3.6-0.3c13.6,0,22.2,13.8,26.3,42.1
	c7.9,53.3,1.2,89.5-6.1,98.4c-1.8,2.4-5.1,5.7-13.2,7.1C434.6,415.8,433.4,415.9,432.3,415.9z M428.9,275.2c-0.8,0-1.6,0.1-2.4,0.2
	c-5.9,1-8.6,3-9.1,3.8l-0.1,0.2c-4.7,6.4-12.4,38.9-4.4,93.9c3.5,23.7,10,35.6,19.5,35.6l0,0c0.7,0,1.5-0.1,2.3-0.2
	c5.6-1,7.7-2.9,8.9-4.4l0.1-0.2c4.2-5,13-36.2,4.6-92.9C444.8,287.3,438.3,275.2,428.9,275.2z"/>
<path fill="#FFFFFF" d="M575.5,452c-1,0-2.1-0.1-3.2-0.3h-0.2c-13.5-3-33.1-11.9-44.4-23.2l-0.1-0.1c-4.5-5-6.7-17.4-2.8-24.7
	c0.6-1.2,1.5-3.2,2.6-5.6c7.8-16.9,25.9-55.6,41.1-78c-17.5-21.8-34.1-46.1-46.8-68.8c-2-3.5-7.5-13-1.7-21
	c7.9-11.9,39.8-26.3,54.7-28.4c0.3,0,0.6-0.1,0.9-0.1c6.1,0,15.1,7,35.5,56.6c6.6-17.4,17.7-45.5,25.4-58.9c2-4,9.7-10,16-10
	c0.5,0,0.9,0,1.4,0.1h0.3c14,3.1,32.6,17.4,43,29.2c4.4,5.3,6.5,18.1,2.7,25.1c-5.4,10.5-31.4,50-44.6,69.7
	c20,24.1,34.3,48.2,48.3,72.7c2,3.6,7.5,13,1.7,21c-7.9,12-32.2,32.4-47.3,34.9c-0.4,0.1-0.7,0.1-1.1,0.1c-4.1,0-10.5-3-23.6-26.2
	c-6.3-11.1-13.5-25.7-20.5-41.8c-8.3,24.5-18.7,52.8-26,70.3C584.8,449.5,580.9,452,575.5,452z M573.4,444.9c0.7,0.1,1.4,0.2,2,0.2
	c2.6,0,4-0.9,4.9-3.1c8.1-19.5,20.2-52.5,28.7-78.6l2.9-8.9l3.6,8.6c8,19.1,16.5,36.7,23.8,49.5c12.6,22.3,17.3,22.6,17.5,22.6
	c5.6-0.9,14.2-5.6,23.4-12.7c8.2-6.4,15.8-13.9,19.2-19.2l0.1-0.1c2.2-3.1,1.6-7.1-2.1-13.5c-14.2-24.9-28.7-49.3-49.2-73.7l-1.7-2
	l1.5-2.2c15.5-23,40.7-61.6,45.7-71.2c2.4-4.3,0.9-14-1.9-17.3c-11-12.6-28.2-24.4-39-26.9c-0.1,0-0.2,0-0.3,0
	c-3.4,0-8.8,4.2-9.8,6.2l-0.1,0.2c-6.1,10.7-16.7,35.5-28.2,66.4l-3.2,8.5l-3.4-8.4c-23.4-58.8-31.5-60.5-32.4-60.5
	c-13.1,1.8-43.2,15.3-49.8,25.4l-0.1,0.1c-2.2,3.1-1.6,7.1,2.1,13.5c12.9,23.1,29.9,48,47.8,69.9l1.7,2.1l-1.5,2.2
	c-15.2,21.4-34.7,63.3-42,79c-1.2,2.5-2.1,4.5-2.7,5.7l-0.1,0.1c-2.4,4.5-1,13.6,1.8,16.7C542.9,433.8,561.3,442.2,573.4,444.9z"/>
<path fill="#FFFFFF" d="M282.9,561.4c-0.2-2.1-0.3-3.9-0.6-5.4c-1.9,9.6-3.4,24.7-1.8,45c0.2,2.4,0.4,4.5,0.7,6.2
	C283.1,598,284.8,582.7,282.9,561.4L282.9,561.4z"/>
<path fill="#FFFFFF" d="M203.3,591.2c-6.4,10.4-15.8,18.8-28.7,23.1c-18.1,6.2-21.5,0.8-26.5-5c0,0-1.2-1.2-2.3-2.3
	c-0.4,16.5,0,35.4,0.8,60.4c0,3.1-1.5,5-5,5.4c-15.4,1.2-31.9-5-38.1-11.5c-1.9-1.9-2.7-4.2-3.1-7.3c-3.1-37.3-0.4-83.4,1.9-98
	c-4.2-5.4-10.4-15-11.9-17.7c-0.8-3.9-0.8-7,1.1-8.9c5-4.6,30.4-21.1,58.8-23.5c3.8-0.4,43.8,8.1,49.6,11.9
	c2.5,1.6,7.7,10.5,10.8,19.6c2.2-6.7,4.9-13,8.1-18.8c-5.3-9.8-9.2-12.4-10.7-13.3c-9.6-6.3-51.4-14.4-57.5-14.4
	c-0.6,0-1.1,0-1.7,0.1c-31.2,2.7-59.5,19.9-67.6,27.4c-0.2,0.1-0.3,0.3-0.4,0.4c-5.4,5.4-7.1,13-5.2,22.5c0.3,1.5,0.8,2.9,1.6,4.3
	c1.4,2.5,5.4,8.9,9.4,14.4c-2.2,19.7-4.1,60.9-1.2,95.2c0,0.2,0,0.5,0.1,0.7c0.5,4.2,1.9,10.4,7.2,15.9c9.2,9.5,27.6,16.2,44.9,16.2
	c1.7,0,3.4-0.1,5.1-0.2c0.2,0,0.4,0,0.5-0.1c10.9-1.2,18.3-9.4,18.3-20.3c0-0.2,0-0.3,0-0.5c-0.4-12.9-0.7-24.4-0.9-34.9
	c5.3,0.1,11.4-1.1,18.7-3.5c9.9-3.3,18.6-8.7,25.9-15.8c-0.6-3.7-1.1-7.7-1.4-11.8C203.6,597.6,203.4,594.4,203.3,591.2z"/>
<path fill="#FFFFFF" d="M345.2,541.2h-4.4c1.3,4.7,2.4,9.8,3.1,15.5C344.3,550.8,344.7,545.6,345.2,541.2z"/>
<path fill="#FFFFFF" d="M281.8,532.1c-4.6,0.4-7.3,1.9-8.1,3.1c-3.8,5-11.1,28.1-8.1,66.9c1.9,24.2,8.8,28.4,16.1,28.1
	c5-0.4,6.9-2.3,8.1-3.5c4.2-4.6,11.5-27.7,8.1-66.5C296,535.6,289.1,531.4,281.8,532.1z M281.2,607.2c-0.3-1.8-0.5-3.8-0.7-6.2
	c-1.6-20.4-0.1-35.4,1.8-45c0.2,1.6,0.4,3.4,0.6,5.4v0.2C284.8,582.7,283.2,598,281.2,607.2z"/>
<path fill="#FFFFFF" d="M344.2,634.5c-0.8-10.1-1.3-20.9-1.4-31.5c-6.4,35-25.2,59.7-49.7,61.6c-16.1,1.2-34.6-0.8-44.2-6.2
	c-10-5.4-27.3-21.9-30-58.8c-0.1-1.6-0.2-3.2-0.3-4.8c-3.6,6.8-8,12.8-13.2,17.9c6.5,39.6,28.9,54.9,36.3,58.9
	c13.6,7.6,34.1,8.4,42.3,8.4c3.5,0,6.9-0.1,10.3-0.4c15.4-1.2,29.4-8.8,40.6-22c4.1-4.8,7.7-10.2,10.8-16.3
	c-0.8-2.3-1.1-4.4-1.4-6.2L344.2,634.5z"/>
<path fill="#FFFFFF" d="M226.4,537.8c9-23.7,24.8-39.5,43.9-41.1c16.1-1.1,34.6,1.6,44.2,7c7.4,4,18.7,14.2,25.2,34.1l3.4-1.7
	c-3.1-4.6-6-9.2-7.1-11.2l-1.1-2l-0.5-2.3c-1.5-7.3-0.8-13.4,2-18.3c-6-6.5-11.6-10.1-14.6-11.7c-10.2-5.7-26.7-9.1-44.2-9.1
	c-2.8,0-5.6,0.1-8.3,0.3h-0.2c-15.1,1.2-29.1,8.9-40.3,22.1c-3.7,4.4-7.1,9.4-10,14.8c0.7,1.4,1.5,2.8,2.2,4.5
	C222.6,526.4,224.9,531.8,226.4,537.8z"/>
<path fill="#FFFFFF" d="M226.4,537.8c-1.5-6-3.8-11.4-5.4-14.7c-0.8-1.6-1.5-3.1-2.2-4.5c-3.2,5.8-5.9,12.1-8.1,18.8
	c1.2,3.6,2.1,7.2,2.3,10.4c1.3,14.7-1.8,30.5-9.7,43.4c0.1,3.2,0.3,6.4,0.5,9.7c0.3,4.2,0.8,8.1,1.4,11.8
	c5.2-5.1,9.6-11.1,13.2-17.9C217.3,573.5,220.3,553.8,226.4,537.8z"/>
<path fill="#FFFFFF" d="M203.3,591.2c7.9-12.9,11-28.7,9.7-43.4c-0.2-3.2-1.1-6.8-2.3-10.4C205.3,553.5,202.7,571.9,203.3,591.2z"/>
<path fill="#FFFFFF" d="M228,546.6c-0.2-3-0.8-6-1.5-8.8c-6.1,16.1-9.1,35.8-8,57.1c0.1-0.2,0.2-0.4,0.3-0.6
	C226.1,580.2,229.4,563.2,228,546.6z"/>
<path fill="#FFFFFF" d="M361,535.3c-4.2-5.4-10.4-15-11.9-17.7c-0.8-3.9-0.8-7,1.1-8.9c5-4.6,30.4-21.1,58.8-23.5
	c3.8-0.4,43.8,8.1,49.6,11.9c0.3,0.2,0.5,0.4,0.9,0.7c0.9-4.1,2.8-7.5,5.8-10.4l0.2-0.2c0.7-0.6,1.5-1.3,2.4-2
	c-0.4-0.3-0.8-0.5-1-0.7c-9.6-6.3-51.4-14.4-57.5-14.4c-0.6,0-1.1,0-1.7,0.1c-31.2,2.7-59.5,19.9-67.6,27.4l-0.4,0.4
	c-1.3,1.3-2.3,2.7-3.2,4.2c9.2,10,19.4,26.8,22.6,53.9C359.6,547.1,360.3,539.7,361,535.3z"/>
<path fill="#FFFFFF" d="M468.8,555.1c-5.2,17.1-16.7,32.2-35.5,38.5c-18.1,6.2-21.5,0.8-26.5-5c0,0-1.2-1.2-2.3-2.3
	c-0.4,16.5,0,35.4,0.8,60.4c0,3.1-1.5,5-5,5.4c-15.4,1.2-31.9-5-38.1-11.5c-1.9-1.9-2.7-4.2-3.1-7.3c-0.8-9.4-1.2-19.5-1.3-29.4
	c-2.4,13.8-6.5,26.6-12.2,37.5c1,3.1,2.8,6.5,5.9,9.6c9.2,9.5,27.6,16.2,44.9,16.2c1.7,0,3.4-0.1,5.1-0.2l0.5-0.1
	c10.9-1.2,18.3-9.4,18.3-20.3v-0.5c-0.4-12.9-0.7-24.4-0.9-34.9c5.3,0.1,11.4-1.1,18.7-3.5c11.8-4,22-10.8,30-20.2
	C468.1,576.2,468.4,565,468.8,555.1z"/>
<path fill="#FFFFFF" d="M359,556.2c-3.2-27.1-13.4-43.9-22.6-53.9c-2.8,4.9-3.5,11-2,18.3l0.5,2.3l1.1,2c1.1,2,4,6.6,7.1,11.2
	l-3.4,1.7c0.4,1.1,0.7,2.3,1.1,3.4h4.4c-0.4,4.4-0.9,9.6-1.2,15.5c0.2,1.8,0.4,3.6,0.6,5.4c1.2,14.6,0.5,28.5-1.8,41
	c0.1,10.6,0.6,21.3,1.4,31.5l0.1,0.7c0.2,1.8,0.6,3.9,1.4,6.2c5.7-10.9,9.8-23.7,12.2-37.5C357.5,586.6,358.1,569.5,359,556.2z"/>
<path fill="#FFFFFF" d="M342.7,603.1c2.3-12.5,3-26.4,1.8-41c-0.2-1.9-0.4-3.7-0.6-5.4C343.1,569.9,342.5,586.3,342.7,603.1z"/>
<path fill="#333333" d="M340.8,541.2c-0.3-1.2-0.7-2.3-1.1-3.4l-7,3.4H340.8z"/>
<path fill="#FFFFFF" d="M359.4,560.8c-0.1-1.6-0.3-3.1-0.5-4.7c-0.9,13.3-1.5,30.4-1.2,47.8C360.1,590.4,360.7,575.8,359.4,560.8z"
	/>
<path fill="#FFFFFF" d="M477,497.1c7.3-5.8,31-20.1,57.4-22.3c3.8-0.4,43.8,8.1,49.6,11.9c1.2,0.8,3.1,3.3,5,6.7
	c0-3,0.6-6.4,2.2-10.2c1-2.3,2.3-4.7,3.8-6.7c-1.3-1.2-2.2-1.9-2.8-2.2c-9.6-6.3-51.4-14.4-57.5-14.4c-0.6,0-1.1,0-1.7,0.1
	c-28.7,2.4-54.9,17.2-65.2,25.4C469.7,486.6,472.9,489.6,477,497.1z"/>
<path fill="#FFFFFF" d="M558.7,583.2c-18.1,6.2-21.5,0.8-26.5-5c0,0-1.2-1.2-2.3-2.3c-0.4,16.5,0,35.4,0.8,60.4c0,3.1-1.5,5-5,5.4
	c-15.4,1.2-31.9-5-38.1-11.5c-1.9-1.9-2.7-4.2-3.1-7.3c-1.8-21.4-1.6-45.7-0.8-65.3c-1.6,5.6-3.6,11-6.2,16c-2.7,5.1-5.8,9.8-9.4,14
	c0,12.2,0.5,24.8,1.4,36.6l0.1,0.7c0.5,4.2,1.9,10.4,7.2,15.9c9.2,9.5,27.6,16.2,44.9,16.2c1.7,0,3.4-0.1,5.1-0.2l0.5-0.1
	c10.9-1.3,18.3-9.4,18.3-20.3v-0.5c-0.4-12.9-0.7-24.4-0.9-34.9c5.3,0.1,11.4-1.1,18.7-3.5c11.9-4,22.1-10.9,30.1-20.3
	c0.3-14.8,1.2-28.3,2.5-39.9C592.3,557.3,580.2,576,558.7,583.2z"/>
<path fill="#333333" d="M597.3,527.2c0.4-2.8,0.8-5.5,1.1-8.1c-0.4-0.8-0.9-1.6-1.3-2.5v0.1C597.4,520.2,597.5,523.7,597.3,527.2z"
	/>
<path fill="#FFFFFF" d="M483.7,557.6c0.6-14.5,1.7-26.5,2.7-32.7c-4.2-5.4-10.4-15-11.9-17.7c-0.9-3.9-0.9-7,1.1-8.9
	c0.4-0.3,0.9-0.7,1.4-1.2c-4.1-7.4-7.4-10.5-9.2-11.8c-0.9,0.7-1.7,1.4-2.4,2l-0.2,0.2c-3,2.9-5,6.4-5.8,10.4
	c3.9,4,11.5,18.9,12.2,29.3c0.8,9.2-0.1,18.9-2.9,28c-0.5,9.9-0.8,21-0.7,32.4c3.6-4.2,6.7-8.8,9.4-14
	C480.1,568.6,482.2,563.2,483.7,557.6z"/>
<path fill="#FFFFFF" d="M459.9,510.6l0.5,2.1l1,1.8c1.1,2,4.1,6.8,7.4,11.5l-10.6,5.2h12.4c-0.6,6.4-1.3,14.6-1.7,23.9
	c2.8-9.1,3.7-18.8,2.9-28c-0.7-10.4-8.4-25.3-12.2-29.3C458.7,501.6,458.8,505.8,459.9,510.6z"/>
<path fill="#FFFFFF" d="M486.7,525.9c-0.7-9.1-4.6-18.7-6.9-23.5c-0.9-2-1.8-3.7-2.7-5.3c-0.6,0.5-1.1,0.9-1.4,1.2
	c-2,1.9-2,5-1.1,8.9c1.5,2.7,7.7,12.3,11.9,17.7c-1,6.2-2,18.1-2.7,32.7C486.5,547.4,487.6,536.6,486.7,525.9z"/>
<path fill="#FFFFFF" d="M604.5,490.6c0.9-2.9,2.8-5.9,4.2-7.3c15-15.4,52.7-21.5,87.3-24.2c7.7-0.8,15,0,18.1,1.9
	c2.1,1.2,3.1,4.7,3.4,8.8c3.1-2.5,7.8-5.8,13.5-9.3c-1.5-4.7-4.2-9.4-9.2-12.4c-4.8-2.9-11.5-4.3-19.9-4.3c-2.4,0-4.8,0.1-7.2,0.4
	c-50.7,4-81.4,13.1-96.6,28.6c-1,1-2,2.3-3,3.6C597.3,478.6,600.6,482.7,604.5,490.6z"/>
<path fill="#FFFFFF" d="M727.2,616.5c-5.2-5.4-6.5-11.5-7-15.6l-0.1-1.2c-0.5-9.4-0.7-18.8-0.8-28c-2.7-1.1-5.8-1.7-9.1-1.7
	c-1.3,0-2.7,0.1-4,0.3c-0.6,0.1-1.6,0.1-2.9,0.3c6-2.9,11.5-8.9,13-16.1c1-4.3,2-11.5,2-18.2c-0.2-18.2-9.1-23.8-15.1-25.4
	c2.6-0.2,5.3-0.4,8-0.7l0,0c1.8-0.2,3.7-0.7,5.5-1.5c-3.3-5-5.7-9.4-5.8-9.5l-0.4-0.8c-0.5-1-0.9-2.1-1.2-3.1
	c-26.2,2.3-44.9,2.7-62.8,8.4c3.5-0.4,6.5,0,8.5,0.8c3.1,1.9,5.4,4.2,5.8,7.3c0,0.4,0,0.8,0,1.5c-0.4,5-1.2,10.4-1.5,16.1
	c13.5-3.5,28.8-6.9,39.6-4.2c6.5,1.5,4.2,19.6,2.7,26.1c-0.4,2.3-4.2,6.2-6.2,6.2c-15.2,1.4-29.4,3-40.2,7.6
	c-0.4,7.3-1.2,15-1.5,23.8c0.4,5-2.3,7.7,4.6,6.2c16.5-6.2,40.4-9.2,49.6-10c2.7-0.4,7.3-0.4,8.5,3.1c5,11.1,2.3,15,1.2,21.9
	c-1.2,6.9-3.8,9.2-6.5,11.1c-5.8,3.8-22.3,3.5-38.1,7.7c-21.9,5.8-45.4,6.2-58.1-6.5c-0.8-0.8-3.8-6.2-3.8-7.3
	c-0.8-1.9-1.5-5.8-1.9-8.1c-1.3-25.2-0.2-48.6,1.9-68.1c-1.5,8.5-4.2,16.8-8.1,24.2c-2.6,5.1-5.8,9.7-9.3,13.9
	c-0.2,9.7,0,20,0.5,30.8v0.9l0.2,0.9c0.7,4.1,1.4,7.5,2.4,10.2c1.9,6.4,6.6,12.4,7.5,13.2c9.7,9.7,24,14.8,41.5,14.8
	c9.6,0,20-1.5,31-4.4c6.2-1.7,13-2.6,19-3.4c9.7-1.3,17.4-2.3,23.5-6.3l0.4-0.3c3.8-2.6,8.1-6.6,10.8-13.9
	C729.3,618.6,728.2,617.6,727.2,616.5z"/>
<path fill="#333333" d="M614.1,515.2l-0.8-0.8c-0.5-0.5-1.1-1.3-1.6-2.3c0.2,1.1,0.3,2.3,0.4,3.4c0.4,4.4,0.4,8.9,0.1,13.3
	c0.6-4.5,1.2-8.8,1.9-12.8C614.1,515.6,614.1,515.6,614.1,515.2z"/>
<path fill="#FFFFFF" d="M611,539c0.4-3.5,0.8-6.9,1.2-10.2c0.3-4.4,0.2-8.9-0.1-13.3c-0.1-1.1-0.2-2.3-0.4-3.4
	c-2.4-4.3-5.3-12.2-7.2-16.5c-0.7-1.4-0.6-3.2,0-5c-3.9-7.9-7.2-12-9.4-14.2c-1.5,2.1-2.8,4.4-3.8,6.7c-1.6,3.9-2.2,7.3-2.2,10.2
	c3.6,6.4,7.6,15.9,8.1,23.2c0.4,0.9,0.9,1.7,1.3,2.5c-0.4,2.5-0.8,5.2-1.1,8.1c-0.2,3.3-0.6,6.7-1.2,10c-1.3,11.7-2.2,25.1-2.5,39.9
	c3.5-4.2,6.6-8.8,9.3-13.9C606.7,555.8,609.5,547.5,611,539z"/>
<path fill="#333333" d="M597.3,527.2c-0.4,3.2-0.8,6.5-1.2,10C596.7,533.9,597.1,530.5,597.3,527.2z"/>
<path fill="#333333" d="M592.5,505.9c1.7,4.2,3.1,7.7,4.6,10.7c-0.6-7.3-4.5-16.8-8.1-23.2c0,3.5,0.9,6.4,1.9,8.6
	C591.4,503,591.9,504.4,592.5,505.9z"/>
<path fill="#333333" d="M604.5,490.6c-0.6,1.8-0.7,3.7,0,5c1.9,4.3,4.7,12.2,7.2,16.5c-1.2-8-4.5-15.8-6.5-20.1
	C604.9,491.5,604.7,491,604.5,490.6z"/>
<path fill="#333333" d="M611,539c0.6-3.4,1-6.8,1.2-10.2C611.8,532.1,611.4,535.5,611,539z"/>
<path fill="#FFFFFF" d="M859.5,567l-0.6-0.5c-3.4-2.5-10.7-8.4-18-15.2c12.6-14,17.6-34,15.3-60.6v-0.4
	c-1.5-13.4-9.7-30.8-22.1-36.5l-0.3-0.1c-4.5-2-32.5-12.8-48.1-12.8c-0.8,0-1.7,0-2.5,0.1H783c-19.3,1.7-38.6,11.1-52,19.5
	c1.7,5.4,1.7,10.7,1.7,13.2c0,1.2,0,2.4-0.1,3.6c11.5-7.9,32.1-19.7,51.7-21.4c10.8-0.8,37.3,8.8,43.4,11.5
	c5.8,2.7,12.3,13.8,13.5,24.6c2.3,26.5-3.1,46.9-22.7,58.1c10.8,11.9,25.8,24.2,31.5,28.4c3.8,3.1,3.1,7.3,0.8,11.5
	c-3.8,7.3-18.1,25.4-28.1,25.8c-10.8,0.8-33.1-36.1-44.2-61.1c-0.4,15,0,33.1,0.8,58.8c0,3.1-1.5,5-5,5.4
	c-15.4,1.2-30.4-6.2-36.1-12.7c-1.9-1.9-2.7-4.2-3.1-7.3c-1.9-36.9-0.4-75,1.2-89.2c0-0.4-0.4-0.4-0.4-0.4
	c-1.9-1.6-5.1-6.3-7.9-10.6c-2.7,4.5-7,8.1-11.4,10c1.3,2,2.7,4.1,4.2,6c-1,12.8-1.8,34-1.5,57c5,2,8.9,5.8,10.9,10.9
	c5.4,12.2,4.4,19.8,2.7,27.1c-0.2,1.1-0.4,2-0.6,2.9v0.2c-0.5,2.6-1.1,4.9-1.8,6.9c8.6,7.5,23.7,14.5,40.5,14.5c1.5,0,3-0.1,4.5-0.2
	l0.5-0.1c10.9-1.3,18.3-9.4,18.3-20.3v-0.5c0-0.5,0-1,0-1.4c10.3,13.4,19,19.2,28.1,19.2c0.4,0,0.8,0,1.2,0
	c8.5-0.4,17.1-5.3,26.3-14.9c5.7-5.9,11.2-13.3,14.2-18.8C871.4,583.6,866.5,572.7,859.5,567z"/>
<path fill="#FFFFFF" d="M732.3,612.6c0.1-0.9,0.3-1.8,0.6-2.9c1.6-7.3,2.7-14.9-2.7-27.1c-2-5-5.9-8.8-10.9-10.9
	c0.1,9.2,0.4,18.7,0.8,28l0.1,1.2c0.5,4.2,1.8,10.2,7,15.6c0.9,1,2,2.1,3.2,3.1c0.7-2,1.4-4.3,1.8-6.9L732.3,612.6z"/>
<path fill="#FFFFFF" d="M716,489.1c-0.4,2.3-4.2,6.2-6.2,6.2c-0.2,0-0.4,0-0.6,0.1c0.3,1,0.8,2.1,1.2,3.1l0.4,0.8
	c0,0.1,2.5,4.5,5.8,9.5c4.4-1.9,8.7-5.4,11.4-10c-1.8-2.8-3.3-5.3-4-6.7c-1.6-3.4-1.6-6.5,0.3-8.4c1.3-1.2,4.2-3.5,8.3-6.3
	c0.1-1.2,0.1-2.4,0.1-3.6c0-2.5,0-7.9-1.7-13.2c-5.7,3.5-10.4,6.9-13.5,9.3C718.1,476.5,717,485,716,489.1z"/>
<path fill="#FFFFFF" d="M136.5,676.5c-14,0-29.8-5.5-36.7-12.7c-2.9-2.9-3.7-6.5-4-9.3v-0.2c-3-36.6-0.6-80.9,1.7-97.3
	c-4.2-5.6-9.8-14.2-11.3-16.9l-0.2-0.3l-0.1-0.4c-0.7-2.1-2.6-8.5,2.1-12.6c6.3-5.7,32.1-21.9,60.8-24.4c0.1,0,0.3,0,0.6,0
	c5.9,0,44.9,8.4,51.2,12.5c4.6,3.1,13.8,20.7,14.7,32.7c2.3,26.4-9.5,59.6-40.8,70.1c-5.8,2-10.5,2.9-14.4,2.9
	c-5.9,0-9.5-2.2-12.2-4.8c-0.1,14.7,0.3,31.5,0.9,51.6v0.1c0,5.1-3,8.3-8.1,8.9h-0.1C139.3,676.4,137.9,676.5,136.5,676.5z
	 M102.7,653.6c0.3,2.6,0.9,4,2.1,5.2c4.9,5.1,18.4,10.6,31.7,10.6c1.2,0,2.4,0,3.6-0.1c1.7-0.2,1.8-0.6,1.8-1.9
	c-0.8-24.2-1.2-43.8-0.8-60.5l0.2-8.2l8.3,8.3l0.7,0.9c2.9,3.4,4.8,5.7,9.9,5.7c3.1,0,7.1-0.8,12.1-2.6c27.7-9.2,38.1-39.1,36-62.9
	c-0.8-10.7-9.2-25.7-11.5-27.4c-1.7-1.1-9.6-3.6-23.6-6.9c-11.7-2.7-21.7-4.5-23.7-4.5c-28.9,2.4-53.4,19.5-56.7,22.6l-0.1,0.1
	c-0.8,0.7-0.8,2.3-0.1,4.8c1.8,3.1,7.6,12,11.4,16.9l0.9,1.2l-0.2,1.5C102.3,571,99.6,617,102.7,653.6z M140.8,593.9l0.3-4.7
	c0.2-3.5,0.4-6.9,0.6-10.3c0.4-6.9,0.8-13.4,1.4-20.2c0.1-2.6-0.3-6.2-5.2-8.2h-15.7l13.6-6.6c5.3-2.6,10.2-4.1,14.7-4.5h0.1
	c14.8-0.9,22.4,9.1,23.3,19c1.2,17.9-13.8,31.2-28.5,34.5L140.8,593.9z M145.8,547.4c3,2.9,4.5,6.9,4.3,11.7v0.1
	c-0.6,6.7-1,13.2-1.4,20.1c-0.1,1.7-0.2,3.5-0.3,5.3c10.2-4.1,19.3-13.5,18.5-25.7c-0.5-5.8-4.7-12.6-14.6-12.6c-0.4,0-0.8,0-1.2,0
	C149.4,546.5,147.7,546.8,145.8,547.4z"/>
<path fill="#FFFFFF" d="M282.6,668.5c-15.2,0-29-2.6-36.7-7c-6.6-3.6-28.6-18.7-31.8-61.6c-3-35.5,5.4-68.7,22.3-88.7
	c9.2-10.8,20.4-17.1,32.4-18.1c2.4-0.2,4.9-0.3,7.4-0.3c15.1,0,30,2.9,38.7,7.7c6.5,3.5,28.2,18.4,31.8,61.2
	c3,35.7-5.3,68.8-22,88.4c-9.2,10.8-20.5,17-32.7,17.9C289,668.4,285.8,668.5,282.6,668.5z M276.2,500c-2.4,0-4.7,0.1-6.9,0.2
	c-10.1,0.8-19.7,6.2-27.6,15.6c-15.8,18.6-23.5,49.8-20.6,83.6c2.9,39.4,22.3,52.8,28.2,56c6.7,3.8,19.5,6.1,33.4,6.1
	c3,0,6-0.1,8.9-0.3c10.3-0.8,20-6.2,27.9-15.5c15.6-18.3,23.2-49.4,20.3-83.3c-1.7-20.5-10.1-45.8-28.2-55.6
	C304,502.6,290.1,500,276.2,500z M279.5,633.7L279.5,633.7c-11.4,0-17.2-9.7-18.9-31.3c-3-38.2,3.8-62.8,8.8-69.3l0.2-0.2
	c1.5-1.6,4.5-3.7,10.4-4.2c0.6-0.1,1.2-0.1,1.7-0.1c14.1,0,17.1,17.9,18.2,31.4c1.9,21.7,0.4,37.5-1.2,46.9
	c-1.8,10.6-4.7,18.9-7.8,22.2l-0.1,0.1c-1.4,1.4-4,4-10.3,4.5h-0.1C280.1,633.7,279.8,633.7,279.5,633.7z M274.9,537.5
	c-2.4,3.4-10.4,24.1-7.3,64.4c2,24.9,8.9,24.9,11.9,24.9l0,0c0.2,0,0.3,0,0.5,0c3.6-0.3,4.8-1.5,5.8-2.4c3.1-3.6,10.6-25,7.2-63.8
	c-1.9-25-8.9-25-11.2-25c-0.3,0-0.7,0-1.1,0.1C276.8,535.9,275.3,537.1,274.9,537.5z"/>
<path fill="#FFFFFF" d="M394.9,655.8c-14,0-29.8-5.5-36.7-12.7c-2.9-2.9-3.7-6.5-4-9.3v-0.2c-3-36.6-0.6-80.9,1.7-97.3
	c-4.2-5.6-9.8-14.2-11.3-16.9l-0.3-0.5l-0.1-0.5c-0.8-3.9-1.3-8.7,2.1-12.1l0.1-0.1c6.2-5.7,32-22,60.9-24.4c0.1,0,0.3,0,0.6,0
	c5.9,0,44.9,8.4,51.2,12.5c4.6,3.1,13.8,20.7,14.7,32.7c2.3,26.4-9.5,59.6-40.8,70.1c-5.8,2-10.5,2.9-14.4,2.9
	c-5.9,0-9.5-2.2-12.2-4.8c-0.1,14.7,0.3,31.5,0.9,51.6v0.1c0,5.1-3,8.3-8.1,8.9h-0.1C397.7,655.7,396.3,655.8,394.9,655.8z
	 M361.1,632.9c0.3,2.6,0.9,4,2.1,5.2c4.9,5.1,18.4,10.6,31.7,10.6c1.2,0,2.4,0,3.6-0.1c1.7-0.2,1.8-0.6,1.8-1.9
	c-0.8-24.2-1.2-43.8-0.8-60.5l0.2-8.2l8.3,8.3l0.7,0.9c2.9,3.4,4.8,5.7,9.9,5.7c3.1,0,7.1-0.8,12.1-2.6c27.7-9.2,38.1-39.1,36-62.9
	c-0.8-10.7-9.2-25.7-11.5-27.4c-1.7-1.1-9.6-3.6-23.6-6.9c-11.7-2.7-21.7-4.5-23.7-4.5c-28.7,2.4-53.1,19.3-56.7,22.5
	c-0.5,0.5-0.8,1.8-0.2,5.1c1.9,3.2,7.5,11.9,11.3,16.8l0.9,1.2l-0.2,1.5C360.7,550.3,358,596.3,361.1,632.9z M399.6,573l0.2-4.6
	c0.4-9.9,1-20,2-30.6c0.1-2.6-0.3-6.2-5.2-8.2h-15.7l13.6-6.6c5.3-2.6,10.2-4.1,14.7-4.5h0.1c14.8-0.9,22.4,9.1,23.3,19
	c1.2,17.9-13.8,31.2-28.5,34.5L399.6,573z M404.5,526.6c3,2.9,4.5,6.9,4.3,11.7v0.1c-0.8,8.8-1.4,17.1-1.8,25.4
	c10.3-4,19.5-13.5,18.6-25.8c-0.5-5.8-4.7-12.6-14.6-12.6c-0.4,0-0.8,0-1.2,0C408.1,525.7,406.4,526,404.5,526.6z"/>
<path fill="#FFFFFF" d="M520.6,645.4c-14,0-29.8-5.5-36.7-12.7c-2.9-2.9-3.7-6.5-4-9.3v-0.2c-3-36.6-0.6-80.9,1.7-97.3
	c-4.2-5.6-9.8-14.2-11.3-16.9l-0.2-0.3l-0.1-0.4c-0.7-2.1-2.6-8.5,2.1-12.6c6.3-5.7,32.1-21.9,60.8-24.4c0.1,0,0.3,0,0.6,0
	c5.9,0,44.9,8.4,51.2,12.5c4.6,3.1,13.8,20.7,14.7,32.7c2.3,26.4-9.5,59.6-40.8,70.1c-5.8,2-10.5,2.9-14.4,2.9
	c-5.9,0-9.5-2.2-12.2-4.8c-0.1,14.7,0.3,31.5,0.9,51.6v0.1c0,5.1-3,8.3-8.1,8.9h-0.1C523.4,645.3,522,645.4,520.6,645.4z
	 M486.8,622.5c0.3,2.6,0.9,4,2.1,5.2c4.9,5.1,18.4,10.6,31.7,10.6c1.2,0,2.4,0,3.6-0.1c1.7-0.2,1.8-0.6,1.8-1.9
	c-0.8-24.2-1.2-43.8-0.8-60.5l0.2-8.2l8.3,8.3l0.7,0.9c2.9,3.4,4.8,5.7,9.9,5.7c3.1,0,7.1-0.8,12.1-2.6c27.7-9.2,38.1-39.1,36-62.9
	c-0.8-10.7-9.2-25.7-11.5-27.4c-1.7-1.1-9.6-3.6-23.6-6.9c-11.7-2.7-21.7-4.5-23.7-4.5c-28.9,2.4-53.4,19.5-56.7,22.6l-0.1,0.1
	c-0.8,0.7-0.8,2.3-0.1,4.8c1.8,3.1,7.6,12,11.4,16.9l0.9,1.2l-0.2,1.5C486.4,539.9,483.7,585.9,486.8,622.5z M524.9,563l0.2-4.6
	c0.4-10.8,1.2-20.5,1.9-29.8l0.1-0.8c0.1-2.6-0.3-6.3-5.2-8.2h-15.7l13.6-6.6c5.3-2.6,10.2-4.1,14.7-4.5h0.1c0.6,0,1.1,0,1.7,0
	c13.7,0,20.7,9.5,21.6,19c1.2,17.9-13.8,31.2-28.5,34.5L524.9,563z M529.8,516.6c3,2.9,4.5,6.9,4.3,11.7l-0.1,1
	c-0.7,8.1-1.3,15.9-1.7,24.5c10.3-4,19.5-13.5,18.6-25.8c-0.5-5.8-4.7-12.6-14.6-12.6c-0.4,0-0.8,0-1.2,0
	C533.4,515.7,531.7,516,529.8,516.6z"/>
<path fill="#FFFFFF" d="M644.2,636.4c-14.6,0-25.8-3.8-33.4-11.4c-0.9-0.9-3.9-5.8-4.7-8.7c-0.8-2.1-1.4-5.3-2-8.6v-0.4
	c-2.1-40,2.1-73.7,4.9-90.8c-2.2-2.5-4.4-7.8-7.3-14.9c-0.7-1.7-1.3-3.3-1.9-4.5c-2.9-5.8,2.5-13.9,4.9-16.3
	c12.9-13.3,42.2-21.5,89.5-25.2c2-0.2,4.1-0.3,6.1-0.3c3.6,0,10.1,0.4,14,2.7c8.9,5.2,4,29.5,3.5,31.8c-0.7,3.7-5.6,8.9-9.4,9
	c-5.1,0.4-9.9,0.8-14.5,1.2c-13.5,1-25,1.9-35.6,4c2.5,2.2,3.9,4.7,4.2,7.5v0.4v1.8c-0.2,2.1-0.4,4.1-0.6,6.3
	c-0.2,1.6-0.4,3.3-0.5,4.9c9.1-2.2,18.5-4.1,26.8-4.1c3.6,0,6.9,0.4,9.8,1.1c11.3,2.6,5.7,28.3,5.3,30.2c-0.7,3.7-5.6,8.8-9.4,9
	c-13.8,1.3-27.1,2.8-37.1,6.5c-0.1,2.1-0.3,4.3-0.5,6.6c-0.3,4.7-0.7,9.5-0.9,14.7c0.1,1.1,0,2.1,0,2.9h0.1
	c15.8-5.9,38.9-9.1,50.2-10.1c0.9-0.1,1.8-0.2,2.7-0.2c4.7,0,8.1,2,9.4,5.5c4.4,9.9,3.3,15.1,2.1,20.2c-0.3,1.1-0.5,2.3-0.7,3.6
	c-1.4,8.2-4.8,11.2-7.9,13.4l-0.1,0.1c-3.8,2.5-10.4,3.4-18.7,4.5c-6.3,0.8-13.5,1.8-20.4,3.7C662.3,635,652.8,636.4,644.2,636.4z
	 M615.8,620.1c6.2,6.2,15.8,9.3,28.4,9.3c8,0,16.9-1.3,26.3-3.8c7.4-2,14.8-3,21.3-3.8c6.8-0.9,13.2-1.8,15.7-3.4
	c1.9-1.3,4-2.8,5-8.8c0.2-1.4,0.5-2.7,0.8-4c1-4.7,1.8-8-1.7-15.9l-0.1-0.3c-0.3-0.9-2.4-0.9-2.9-0.9c-0.6,0-1.2,0-1.8,0.1h-0.2
	c-10.9,1-33.5,4.1-48.7,9.8l-0.5,0.1c-1.5,0.3-2.7,0.5-3.7,0.5l0,0c-1.7,0-3.1-0.5-4.1-1.6c-1.5-1.7-1.3-3.7-1.1-5.4
	c0.1-0.9,0.2-1.8,0.1-2.8V589v-0.2c0.2-5.4,0.6-10.4,0.9-15.2c0.2-3,0.4-5.9,0.6-8.7l0.1-2.2l2-0.9c11.1-4.8,25.9-6.5,41.3-7.9l0,0
	c1-0.4,2.8-2.4,3.1-3.4v-0.1c2.6-11.2,1.5-21.5-0.1-21.9c-2.4-0.6-5.1-0.9-8.2-0.9c-9,0-19.6,2.4-29.8,5.1l-4.6,1.2l0.3-4.8
	c0.2-3.5,0.5-6.9,0.9-10.1c0.2-2.1,0.4-4,0.6-6v-1.1c-0.2-1-0.8-2.5-3.9-4.4c-0.7-0.3-2.1-0.6-4.2-0.6c-0.7,0-1.5,0-2.3,0.1
	l-1.5-6.8c14.9-4.8,30.2-6,49.6-7.5c4.6-0.4,9.4-0.7,14.5-1.2c1-0.4,2.8-2.4,3.1-3.4v-0.2c2.2-9,2-22.8-0.2-24.2l-0.1-0.1
	c-1.4-0.8-5.1-1.7-10.4-1.7c-1.8,0-3.7,0.1-5.5,0.3c-45,3.5-73.6,11.3-85.2,23.2c-2.2,2.2-4.3,7-3.6,8.2l0.1,0.3
	c0.6,1.4,1.3,3,2,4.8c1.7,4.3,4.6,11.4,6.1,12.9l1.8,1.8v2.8c-2.8,16.5-7.1,50-5,90.1c0.3,1.6,1,5.6,1.6,7.1l0.3,0.7v0.3
	C613.4,616,615.2,619.3,615.8,620.1z"/>
<path fill="#FFFFFF" d="M769.5,622.6c-14.9,0-29.3-7.2-35.3-13.9c-2.9-2.9-3.7-6.5-4-9.2v-0.3c-1.8-35.6-0.5-72.6,1-88.1
	c-4-4.3-10.5-15.1-11.7-17.3l-0.1-0.1c-2.4-4.9-2.1-9.6,1-12.5c4.6-4.3,33.9-26.2,62.1-28.6c0.6,0,1.1-0.1,1.7-0.1
	c12.5,0,37.8,9.3,43.5,11.8c7.3,3.4,14.3,15.7,15.6,27.4c2.5,28.5-4.3,47.9-20.7,59.2c10.2,10.7,23.1,21.1,28.1,24.9l0.1,0.1
	c2.7,2.2,6.4,7.1,1.7,15.9c-4,7.6-19,27.1-31,27.6c-0.2,0-0.4,0-0.5,0c-2.3,0-9.4,0-24.8-22.8c-5.2-7.8-10.8-17.3-15.7-26.8
	c0,11.8,0.4,25.9,1,43.7v0.1c0,5.1-3,8.3-8.1,8.9h-0.1C771.9,622.6,770.7,622.6,769.5,622.6z M737.1,598.7c0.3,2.5,0.9,4,2.1,5.1
	l0.2,0.2c4.2,4.8,16.4,11.6,30.1,11.6c1,0,2,0,3-0.1c1.7-0.2,1.8-0.6,1.8-1.9c-0.8-26-1.2-44-0.8-58.9l0.2-8.9l-0.4,0.1l0.2-4.7
	c0.2-5.2,0.5-10.1,0.8-14.9c0.3-4.4,0.5-8.9,0.7-13.5v-0.2c0.2-2.5-0.1-6-5.7-8.1c-0.5,0-1-0.1-1.5-0.2c-0.6-0.1-1.1-0.2-1.6-0.2h-9
	l6.7-6.1c4-3.6,10.2-8.1,17.5-8.6c0.8-0.1,1.7-0.1,2.5-0.1c9.2,0,19.6,5.7,20.8,18.3c1.3,16.3-10.7,33-26.8,37.1l-1.4,0.4l3.7,8.3
	c5.8,13,14.1,28.1,21.6,39.3c12.9,19.2,18.4,19.7,19,19.7h0.2c7.5-0.3,21-15.9,25.1-23.9c2.7-4.9,1.1-6.3,0.2-7.1
	c-4.6-3.4-20.2-15.9-31.9-28.8l-2.9-3.2l3.8-2.2c16.7-9.5,23.4-26.9,20.9-54.8c-1.1-9.7-7.1-19.7-11.5-21.7
	c-6.1-2.7-29.9-11.2-40.6-11.2c-0.4,0-0.8,0-1.1,0c-25.9,2.2-53.8,23-57.9,26.8c-0.8,0.8-0.3,2.7,0.4,4.2c2,3.6,8,13.1,10.7,15.9
	c1.2,0.7,2,1.9,2,3.4v0.4C736.7,524.3,735.2,562.1,737.1,598.7z M782,513.1c-0.2,4.6-0.5,9.2-0.7,13.6c-0.2,3.1-0.4,6.2-0.5,9.5
	c9.6-4.7,17.9-15.8,17-28c-0.8-8.2-7.5-11.9-13.8-11.9c-0.6,0-1.3,0-1.9,0.1c-2.4,0.2-5.1,1.1-7.7,2.6
	C779.7,501.9,782.5,506.9,782,513.1z"/>
</svg>
