<?xml version="1.0" encoding="utf-8"?>
<!-- Generator: Adobe Illustrator 18.1.1, SVG Export Plug-In . SVG Version: 6.00 Build 0)  -->
<svg version="1.1" id="Layer_1" xmlns="http://www.w3.org/2000/svg" xmlns:xlink="http://www.w3.org/1999/xlink" x="0px" y="0px"
	 viewBox="0 0 234.1 229.4" enable-background="new 0 0 234.1 229.4" xml:space="preserve">
<polygon fill="#CCCCCC" points="115.4,4.3 133.7,20.6 156.8,12.6 167.5,34.6 191.9,36 193.3,60.4 215.3,71.1 207.3,94.2 
	223.6,112.5 207.3,130.8 215.3,153.9 193.3,164.6 191.9,189 167.5,190.5 156.8,212.4 133.7,204.5 115.4,220.7 97.1,204.5 74,212.4 
	63.3,190.5 38.9,189 37.4,164.6 15.5,153.9 23.4,130.8 7.2,112.5 23.4,94.2 15.5,71.1 37.4,60.4 38.9,36 63.3,34.6 74,12.6 
	97.1,20.6 "/>
<radialGradient id="SVGID_1_" cx="115.9081" cy="113.0961" r="103.4077" gradientUnits="userSpaceOnUse">
	<stop  offset="0.5746" style="stop-color:#999999"/>
	<stop  offset="1" style="stop-color:#4D4D4D"/>
</radialGradient>
<polygon fill="url(#SVGID_1_)" stroke="#FFFFFF" stroke-width="2.8138" stroke-miterlimit="10" points="115.9,9.7 133.4,25.2 
	155.5,17.6 165.7,38.6 189,40 190.4,63.3 211.4,73.5 203.8,95.6 219.3,113.1 203.8,130.6 211.4,152.7 190.4,162.9 189,186.2 
	165.7,187.6 155.5,208.6 133.4,201 115.9,216.5 98.4,201 76.3,208.6 66.1,187.6 42.8,186.2 41.4,162.9 20.4,152.7 28,130.6 
	12.5,113.1 28,95.6 20.4,73.5 41.4,63.3 42.8,40 66.1,38.6 76.3,17.6 98.4,25.2 "/>
<g>
	<g>
		
			<path fill="#FFFFFF" stroke="#3FFF1D" stroke-width="8.579" stroke-linecap="round" stroke-linejoin="round" stroke-miterlimit="10" d="
			M87.9,65.7c-2.2,14.4-6.5,45-10.1,55c-0.2,0.7-0.8,1.2-1.9,1.2c-2.1,0.5-6,0.7-9.3,0.7l-0.5,0.1c-2.7,0.4-9.6-1.4-12-2.8
			c-1.2-0.7-2.1-1.7-2.4-2.9c-0.6-2.5-5.3-14.4-10.9-32.8c-3-9.4-4.3-14.7-4.6-15.8c-0.3-1.1,0.8-3.7,2.9-4
			c5.4-0.8,12.9,0.8,15.2,3.1c1.5,1.6,6.9,22,10.3,37.4c2-14,2.6-30.9,4.5-43c0.2-1.2,0.2-2,1.4-2.2c5.4-0.8,13.4,1.1,16.2,3.6
			C87.5,63.9,88.2,64.4,87.9,65.7z"/>
		
			<path fill="#FFFFFF" stroke="#3FFF1D" stroke-width="8.579" stroke-linecap="round" stroke-linejoin="round" stroke-miterlimit="10" d="
			M122.8,57.5c3.8,1.8,10.6,7.5,12.6,21c3,20.5-4.3,37.8-16.6,39.6c-5.9,0.9-12.9,0.5-16.7-1.3c-3.8-1.8-10.7-7.5-12.7-21.1
			c-3-20.4,4.4-37.8,16.7-39.6C112.1,55.3,119,55.8,122.8,57.5z M108.3,70.3c-1.4,1.9-3.4,10.7-1.3,25.1c1.3,8.9,4.1,10.4,6.7,10
			c1.8-0.3,2.5-1,2.9-1.5c1.5-1.8,3.5-10.6,1.4-24.9c-1.3-9.1-4.1-10.5-6.7-10.1C109.5,69.2,108.7,69.8,108.3,70.3z"/>
		
			<path fill="#FFFFFF" stroke="#3FFF1D" stroke-width="8.579" stroke-linecap="round" stroke-linejoin="round" stroke-miterlimit="10" d="
			M169.8,79.8c5.5,6.5,9.3,13,12.9,19.3c0.8,1.4,1.5,3.1,0.5,4.5c-1.9,2.9-8.1,8.1-11.7,8.7c-2.5,0.4-7.9-10.3-11.7-19.3
			c-2.3,7-5.4,15.5-7.5,20.5c-0.5,1.2-1.5,1.5-2.8,1.3c-3.2-0.7-8.2-2.9-11.1-5.8c-1-1.1-1.4-3.9-0.6-5.4
			c1.2-2.5,7.1-15.7,11.7-22.2c-4.9-6-9.3-12.6-12.5-18.3c-0.8-1.4-1.5-3.1-0.5-4.5c1.9-2.9,10-6.5,13.6-7c2.2-0.3,6.1,8.1,9.4,16.3
			c2.5-6.7,5.5-14.1,7.4-17.4c0.4-0.8,2.3-2.3,3.6-2.1c3.2,0.7,7.8,4,10.7,7.3c0.9,1.1,1.4,4,0.6,5.5
			C180.5,63.8,173.8,74,169.8,79.8z"/>
	</g>
	<g>
		<path fill="#FFFFFF" stroke="#006837" stroke-width="2.1447" stroke-miterlimit="10" d="M87.4,65.7c-2.2,14.4-6.5,45-10.1,55
			c-0.2,0.7-0.8,1.2-1.9,1.2c-2.1,0.5-6,0.7-9.3,0.7l-0.5,0.1c-2.7,0.4-9.6-1.4-12-2.8c-1.2-0.7-2.1-1.7-2.4-2.9
			c-0.6-2.5-5.3-14.4-10.9-32.8c-3-9.4-4.3-14.7-4.6-15.8c-0.3-1.1,0.8-3.7,2.9-4c5.4-0.8,12.9,0.8,15.2,3.1
			c1.5,1.6,6.9,22,10.3,37.4c2-14,2.6-30.9,4.5-43c0.2-1.2,0.2-2,1.4-2.2c5.4-0.8,13.4,1.1,16.2,3.6C86.9,63.9,87.6,64.4,87.4,65.7z
			"/>
		<path fill="#FFFFFF" stroke="#006837" stroke-width="2.1447" stroke-miterlimit="10" d="M122.3,57.5c3.8,1.8,10.6,7.5,12.6,21
			c3,20.5-4.3,37.8-16.6,39.6c-5.9,0.9-12.9,0.5-16.7-1.3c-3.8-1.8-10.7-7.5-12.7-21.1c-3-20.4,4.4-37.8,16.7-39.6
			C111.5,55.3,118.5,55.8,122.3,57.5z M107.8,70.3c-1.4,1.9-3.4,10.7-1.3,25.1c1.3,8.9,4.1,10.4,6.7,10c1.8-0.3,2.5-1,2.9-1.5
			c1.5-1.8,3.5-10.6,1.4-24.9c-1.3-9.1-4.1-10.5-6.7-10.1C109,69.2,108.1,69.8,107.8,70.3z"/>
		<path fill="#FFFFFF" stroke="#006837" stroke-width="2.1447" stroke-miterlimit="10" d="M169.3,79.8c5.5,6.5,9.3,13,12.9,19.3
			c0.8,1.4,1.5,3.1,0.5,4.5c-1.9,2.9-8.1,8.1-11.7,8.7c-2.5,0.4-7.9-10.3-11.7-19.3c-2.3,7-5.4,15.5-7.5,20.5
			c-0.5,1.2-1.5,1.5-2.8,1.3c-3.2-0.7-8.2-2.9-11.1-5.8c-1-1.1-1.4-3.9-0.6-5.4c1.2-2.5,7.1-15.7,11.7-22.2
			c-4.9-6-9.3-12.6-12.5-18.3c-0.8-1.4-1.5-3.1-0.5-4.5c1.9-2.9,10-6.5,13.6-7c2.2-0.3,6.1,8.1,9.4,16.3c2.5-6.7,5.5-14.1,7.4-17.4
			c0.4-0.8,2.3-2.3,3.6-2.1c3.2,0.7,7.8,4,10.7,7.3c0.9,1.1,1.4,4,0.6,5.5C179.9,63.8,173.2,74,169.3,79.8z"/>
	</g>
</g>
<g>
	
		<path fill="#FFFFFF" stroke="#3FFF1D" stroke-width="5.9774" stroke-linecap="round" stroke-linejoin="round" stroke-miterlimit="10" d="
		M23.8,140.3c1.3-1.2,7.9-5.5,15.3-6.1c1-0.1,11.4,2.1,12.9,3.1c0.9,0.6,3.2,4.9,3.4,7.8c0.6,6.9-2.5,14.8-10,17.3
		c-4.7,1.6-5.6,0.2-6.9-1.3c0,0-0.3-0.3-0.6-0.6c-0.1,4.3,0,9.2,0.2,15.7c0,0.8-0.4,1.3-1.3,1.4c-4,0.3-8.3-1.3-9.9-3
		c-0.5-0.5-0.7-1.1-0.8-1.9c-0.8-9.7-0.1-21.7,0.5-25.5c-1.1-1.4-2.7-3.9-3.1-4.6C23.3,141.6,23.3,140.8,23.8,140.3z M38,155.9
		c3.5-0.8,7-3.9,6.7-8c-0.2-2.2-1.9-4.3-5.1-4.1c-1.1,0.1-2.3,0.5-3.5,1.1c0.1,0,0.2,0,0.3,0c0.9,0.3,2.2,1.1,2.1,3.1
		C38.3,150.6,38.1,153.1,38,155.9z"/>
	<path fill="#FFFFFF" stroke="#3FFF1D" stroke-width="5.9774" stroke-miterlimit="10" d="M81.8,133.6c2.6,1.4,7,5.7,7.8,15.2
		c1.2,14.4-4.7,26-13.4,26.7c-4.2,0.3-9-0.2-11.5-1.6c-2.6-1.4-7.1-5.7-7.8-15.3c-1.2-14.3,4.8-26.1,13.4-26.8
		C74.5,131.5,79.3,132.2,81.8,133.6z M71.2,141.8c-1,1.3-2.9,7.3-2.1,17.4c0.5,6.3,2.3,7.4,4.2,7.3c1.3-0.1,1.8-0.6,2.1-0.9
		c1.1-1.2,3-7.2,2.1-17.3c-0.5-6.4-2.3-7.5-4.2-7.3C72.1,141.1,71.4,141.5,71.2,141.8z"/>
	<path fill="#FFFFFF" stroke="#3FFF1D" stroke-width="5.9774" stroke-miterlimit="10" d="M91.1,134.9c1.3-1.2,7.9-5.5,15.3-6.1
		c1-0.1,11.4,2.1,12.9,3.1c0.9,0.6,3.2,4.9,3.4,7.8c0.6,6.9-2.5,14.8-10,17.3c-4.7,1.6-5.6,0.2-6.9-1.3c0,0-0.3-0.3-0.6-0.6
		c-0.1,4.3,0,9.2,0.2,15.7c0,0.8-0.4,1.3-1.3,1.4c-4,0.3-8.3-1.3-9.9-3c-0.5-0.5-0.7-1.1-0.8-1.9c-0.8-9.7-0.1-21.7,0.5-25.5
		c-1.1-1.4-2.7-3.9-3.1-4.6C90.6,136.2,90.6,135.4,91.1,134.9z M105.3,150.5c3.5-0.8,7-3.9,6.7-8c-0.2-2.2-1.9-4.3-5.1-4.1
		c-1.1,0.1-2.3,0.5-3.5,1.1c0.1,0,0.2,0,0.3,0c0.9,0.3,2.2,1.1,2.1,3.1C105.6,145.1,105.4,147.7,105.3,150.5z"/>
	<path fill="#FFFFFF" stroke="#3FFF1D" stroke-width="5.9774" stroke-miterlimit="10" d="M123.7,132.2c1.3-1.2,7.9-5.5,15.3-6.1
		c1-0.1,11.4,2.1,12.9,3.1c0.9,0.6,3.2,4.9,3.4,7.8c0.6,6.9-2.5,14.8-10,17.3c-4.7,1.6-5.6,0.2-6.9-1.3c0,0-0.3-0.3-0.6-0.6
		c-0.1,4.3,0,9.2,0.2,15.7c0,0.8-0.4,1.3-1.3,1.4c-4,0.3-8.3-1.3-9.9-3c-0.5-0.5-0.7-1.1-0.8-1.9c-0.8-9.7-0.1-21.7,0.5-25.5
		c-1.1-1.4-2.7-3.9-3.1-4.6C123.2,133.5,123.2,132.7,123.7,132.2z M137.9,147.9c3.5-0.8,7-3.9,6.7-8c-0.2-2.2-1.9-4.3-5.1-4.1
		c-1.1,0.1-2.3,0.5-3.5,1.1c0.1,0,0.2,0,0.3,0c0.9,0.3,2.2,1.1,2.1,3.1C138.2,142.5,138,145,137.9,147.9z"/>
	<path fill="#FFFFFF" stroke="#3FFF1D" stroke-width="5.9774" stroke-miterlimit="10" d="M170.4,149.6c-0.1,1.9-0.3,3.9-0.4,6.2
		c0.1,1.3-0.6,2,1.2,1.6c4.3-1.6,10.5-2.4,12.9-2.6c0.7-0.1,1.9-0.1,2.2,0.8c1.3,2.9,0.6,3.9,0.3,5.7c-0.3,1.8-1,2.4-1.7,2.9
		c-1.5,1-5.8,0.9-9.9,2c-5.7,1.5-11.8,1.6-15.1-1.7c-0.2-0.2-1-1.6-1-1.9c-0.2-0.5-0.4-1.5-0.5-2.1c-0.5-9.4,0.3-17.8,1.3-23.7
		c0-0.1,0-0.1,0-0.2l-0.2-0.2c-0.7-0.7-1.7-3.5-2.3-4.9c-0.5-0.9,0.5-2.6,1.1-3.2c3.9-4,13.7-5.6,22.7-6.3c2-0.2,3.9,0,4.7,0.5
		c1.4,0.8,0.9,5.6,0.5,7.3c-0.1,0.6-1.1,1.6-1.6,1.6c-6.9,0.6-11.8,0.7-16.5,2.2c0.9-0.1,1.7,0,2.2,0.2c0.8,0.5,1.4,1.1,1.5,1.9
		c0,0.1,0,0.2,0,0.4c-0.1,1.3-0.3,2.7-0.4,4.2c3.5-0.9,7.5-1.8,10.3-1.1c1.7,0.4,1.1,5.1,0.7,6.8c-0.1,0.6-1.1,1.6-1.6,1.6
		C176.9,148,173.2,148.4,170.4,149.6z"/>
	<path fill="#FFFFFF" stroke="#3FFF1D" stroke-width="5.9774" stroke-miterlimit="10" d="M188.4,128.4c1.3-1.2,8.7-6.6,15.6-7.2
		c2.8-0.2,9.7,2.3,11.3,3c1.5,0.7,3.2,3.6,3.5,6.4c0.6,6.9-0.8,12.2-5.9,15.1c2.8,3.1,6.7,6.3,8.2,7.4c1,0.8,0.8,1.9,0.2,3
		c-1,1.9-4.7,6.6-7.3,6.7c-2.8,0.2-8.6-9.4-11.5-15.9c-0.1,3.9,0,8.6,0.2,15.3c0,0.8-0.4,1.3-1.3,1.4c-4,0.3-7.9-1.6-9.4-3.3
		c-0.5-0.5-0.7-1.1-0.8-1.9c-0.5-9.6-0.1-19.5,0.3-23.2c0-0.1-0.1-0.1-0.1-0.1c-0.8-0.7-2.6-3.6-3.1-4.5
		C187.9,129.7,187.9,128.9,188.4,128.4z M202.5,143.4c3.5-0.9,6.6-4.7,6.3-8.7c-0.2-2.2-2-4.2-5.1-3.9c-1.4,0.1-2.8,0.9-4,2
		c0.4,0,0.7,0.1,1,0.1c0.9,0.3,2.4,1.1,2.2,3.1C202.7,138.5,202.6,140.8,202.5,143.4z"/>
	<g>
		<path fill="#FFFFFF" stroke="#006837" stroke-width="1.4944" stroke-miterlimit="10" d="M23.5,140.3c1.3-1.2,7.9-5.5,15.3-6.1
			c1-0.1,11.4,2.1,12.9,3.1c0.9,0.6,3.2,4.9,3.4,7.8c0.6,6.9-2.5,14.8-10,17.3c-4.7,1.6-5.6,0.2-6.9-1.3c0,0-0.3-0.3-0.6-0.6
			c-0.1,4.3,0,9.2,0.2,15.7c0,0.8-0.4,1.3-1.3,1.4c-4,0.3-8.3-1.3-9.9-3c-0.5-0.5-0.7-1.1-0.8-1.9c-0.8-9.7-0.1-21.7,0.5-25.5
			c-1.1-1.4-2.7-3.9-3.1-4.6C22.9,141.6,22.9,140.8,23.5,140.3z M37.6,155.9c3.5-0.8,7-3.9,6.7-8c-0.2-2.2-1.9-4.3-5.1-4.1
			c-1.1,0.1-2.3,0.5-3.5,1.1c0.1,0,0.2,0,0.3,0c0.9,0.3,2.2,1.1,2.1,3.1C37.9,150.6,37.8,153.1,37.6,155.9z"/>
		<path fill="#FFFFFF" stroke="#006837" stroke-width="1.4944" stroke-miterlimit="10" d="M81.5,133.6c2.6,1.4,7,5.7,7.8,15.2
			c1.2,14.4-4.7,26-13.4,26.7c-4.2,0.3-9-0.2-11.5-1.6c-2.6-1.4-7.1-5.7-7.8-15.3c-1.2-14.3,4.8-26.1,13.4-26.8
			C74.1,131.5,78.9,132.2,81.5,133.6z M70.8,141.8c-1,1.3-2.9,7.3-2.1,17.4c0.5,6.3,2.3,7.4,4.2,7.3c1.3-0.1,1.8-0.6,2.1-0.9
			c1.1-1.2,3-7.2,2.1-17.3c-0.5-6.4-2.3-7.5-4.2-7.3C71.7,141.1,71.1,141.5,70.8,141.8z"/>
		<path fill="#FFFFFF" stroke="#006837" stroke-width="1.4944" stroke-miterlimit="10" d="M90.7,134.9c1.3-1.2,7.9-5.5,15.3-6.1
			c1-0.1,11.4,2.1,12.9,3.1c0.9,0.6,3.2,4.9,3.4,7.8c0.6,6.9-2.5,14.8-10,17.3c-4.7,1.6-5.6,0.2-6.9-1.3c0,0-0.3-0.3-0.6-0.6
			c-0.1,4.3,0,9.2,0.2,15.7c0,0.8-0.4,1.3-1.3,1.4c-4,0.3-8.3-1.3-9.9-3c-0.5-0.5-0.7-1.1-0.8-1.9c-0.8-9.7-0.1-21.7,0.5-25.5
			c-1.1-1.4-2.7-3.9-3.1-4.6C90.2,136.2,90.2,135.4,90.7,134.9z M104.9,150.5c3.5-0.8,7-3.9,6.7-8c-0.2-2.2-1.9-4.3-5.1-4.1
			c-1.1,0.1-2.3,0.5-3.5,1.1c0.1,0,0.2,0,0.3,0c0.9,0.3,2.2,1.1,2.1,3.1C105.2,145.1,105,147.7,104.9,150.5z"/>
		<path fill="#FFFFFF" stroke="#006837" stroke-width="1.4944" stroke-miterlimit="10" d="M123.4,132.2c1.3-1.2,7.9-5.5,15.3-6.1
			c1-0.1,11.4,2.1,12.9,3.1c0.9,0.6,3.2,4.9,3.4,7.8c0.6,6.9-2.5,14.8-10,17.3c-4.7,1.6-5.6,0.2-6.9-1.3c0,0-0.3-0.3-0.6-0.6
			c-0.1,4.3,0,9.2,0.2,15.7c0,0.8-0.4,1.3-1.3,1.4c-4,0.3-8.3-1.3-9.9-3c-0.5-0.5-0.7-1.1-0.8-1.9c-0.8-9.7-0.1-21.7,0.5-25.5
			c-1.1-1.4-2.7-3.9-3.1-4.6C122.8,133.5,122.8,132.7,123.4,132.2z M137.5,147.9c3.5-0.8,7-3.9,6.7-8c-0.2-2.2-1.9-4.3-5.1-4.1
			c-1.1,0.1-2.3,0.5-3.5,1.1c0.1,0,0.2,0,0.3,0c0.9,0.3,2.2,1.1,2.1,3.1C137.8,142.5,137.6,145,137.5,147.9z"/>
		<path fill="#FFFFFF" stroke="#006837" stroke-width="1.4944" stroke-miterlimit="10" d="M170,149.6c-0.1,1.9-0.3,3.9-0.4,6.2
			c0.1,1.3-0.6,2,1.2,1.6c4.3-1.6,10.5-2.4,12.9-2.6c0.7-0.1,1.9-0.1,2.2,0.8c1.3,2.9,0.6,3.9,0.3,5.7c-0.3,1.8-1,2.4-1.7,2.9
			c-1.5,1-5.8,0.9-9.9,2c-5.7,1.5-11.8,1.6-15.1-1.7c-0.2-0.2-1-1.6-1-1.9c-0.2-0.5-0.4-1.5-0.5-2.1c-0.5-9.4,0.3-17.8,1.3-23.7
			c0-0.1,0-0.1,0-0.2l-0.2-0.2c-0.7-0.7-1.7-3.5-2.3-4.9c-0.5-0.9,0.5-2.6,1.1-3.2c3.9-4,13.7-5.6,22.7-6.3c2-0.2,3.9,0,4.7,0.5
			c1.4,0.8,0.9,5.6,0.5,7.3c-0.1,0.6-1.1,1.6-1.6,1.6c-6.9,0.6-11.8,0.7-16.5,2.2c0.9-0.1,1.7,0,2.2,0.2c0.8,0.5,1.4,1.1,1.5,1.9
			c0,0.1,0,0.2,0,0.4c-0.1,1.3-0.3,2.7-0.4,4.2c3.5-0.9,7.5-1.8,10.3-1.1c1.7,0.4,1.1,5.1,0.7,6.8c-0.1,0.6-1.1,1.6-1.6,1.6
			C176.5,148,172.8,148.4,170,149.6z"/>
		<path fill="#FFFFFF" stroke="#006837" stroke-width="1.4944" stroke-miterlimit="10" d="M188,128.4c1.3-1.2,8.7-6.6,15.6-7.2
			c2.8-0.2,9.7,2.3,11.3,3c1.5,0.7,3.2,3.6,3.5,6.4c0.6,6.9-0.8,12.2-5.9,15.1c2.8,3.1,6.7,6.3,8.2,7.4c1,0.8,0.8,1.9,0.2,3
			c-1,1.9-4.7,6.6-7.3,6.7c-2.8,0.2-8.6-9.4-11.5-15.9c-0.1,3.9,0,8.6,0.2,15.3c0,0.8-0.4,1.3-1.3,1.4c-4,0.3-7.9-1.6-9.4-3.3
			c-0.5-0.5-0.7-1.1-0.8-1.9c-0.5-9.6-0.1-19.5,0.3-23.2c0-0.1-0.1-0.1-0.1-0.1c-0.8-0.7-2.6-3.6-3.1-4.5
			C187.5,129.7,187.5,128.9,188,128.4z M202.1,143.4c3.5-0.9,6.6-4.7,6.3-8.7c-0.2-2.2-2-4.2-5.1-3.9c-1.4,0.1-2.8,0.9-4,2
			c0.4,0,0.7,0.1,1,0.1c0.9,0.3,2.4,1.1,2.2,3.1C202.4,138.5,202.2,140.8,202.1,143.4z"/>
	</g>
</g>
</svg>
